<?xml version="1.0" encoding="utf-8"?>
<!-- Generator: Adobe Illustrator 24.1.0, SVG Export Plug-In . SVG Version: 6.00 Build 0)  -->
<svg version="1.1" id="Слой_1" xmlns="http://www.w3.org/2000/svg" xmlns:xlink="http://www.w3.org/1999/xlink" x="0px" y="0px"
	 viewBox="0 0 32 32" style="enable-background:new 0 0 32 32;" xml:space="preserve">
<style type="text/css">
	.st0{fill:#29ABE2;stroke:#3FA9F5;stroke-width:0.25;stroke-miterlimit:10;}
</style>
<g>
	<path class="st0" d="M10.37,10.4l-1.23,0c-0.84,0-1.52,0.71-1.52,1.58L7.61,23.95c0,0.87-0.68,1.58-1.52,1.58l-0.34,0
		c-0.84,0-1.52-0.71-1.52-1.58l0.01-11.98c0-0.87-0.68-1.58-1.52-1.58l-1.21,0C0.68,10.4,0,9.69,0,8.82l0-0.24C0,7.71,0.68,7,1.52,7
		l8.85,0c0.84,0,1.52,0.71,1.52,1.58l0,0.24C11.89,9.7,11.21,10.4,10.37,10.4z"/>
	<path class="st0" d="M30.47,25.54l-0.29,0c-0.84,0-1.52-0.71-1.52-1.58l0-9.51c0-1.2,0.04-2.52,0.13-3.97h-0.08
		c-0.17,1.14-0.33,1.95-0.47,2.45L25.05,24.4c-0.19,0.67-0.78,1.14-1.46,1.14l-0.48,0c-0.67,0-1.26-0.46-1.45-1.13l-3.24-11.34
		c-0.1-0.34-0.25-1.2-0.47-2.58h-0.09c0.09,1.83,0.13,3.43,0.13,4.81l-0.01,8.67c0,0.87-0.68,1.58-1.52,1.58h0
		c-0.84,0-1.52-0.71-1.52-1.58l0.01-15.37c0-0.87,0.68-1.58,1.52-1.58l2.27,0c0.68,0,1.27,0.47,1.46,1.14l2.73,9.84
		c0.24,0.88,0.98,0.73,1.19-0.02l2.74-9.82c0.19-0.67,0.78-1.14,1.46-1.14l2.15,0c0.84,0,1.52,0.71,1.52,1.58l-0.01,15.37
		C31.99,24.84,31.31,25.54,30.47,25.54z"/>
</g>
</svg>
