<?xml version="1.0" encoding="utf-8"?>
<!-- Generator: Adobe Illustrator 24.1.0, SVG Export Plug-In . SVG Version: 6.00 Build 0)  -->
<svg version="1.1" id="Слой_1" xmlns="http://www.w3.org/2000/svg" xmlns:xlink="http://www.w3.org/1999/xlink" x="0px" y="0px"
	 viewBox="0 0 32 32" style="enable-background:new 0 0 32 32;" xml:space="preserve">
<style type="text/css">
	.st0{fill:#FFFFFF;stroke:#FFFFFF;stroke-width:0.25;stroke-miterlimit:10;}
</style>
<g>
	<path class="st0" d="M10.4,10.4H9.1c-0.8,0-1.5,0.7-1.5,1.6l0,12c0,0.9-0.7,1.6-1.5,1.6H5.8c-0.8,0-1.5-0.7-1.5-1.6l0-12
		c0-0.9-0.7-1.6-1.5-1.6H1.5C0.7,10.4,0,9.7,0,8.8V8.6C0,7.7,0.7,7,1.5,7h8.9c0.8,0,1.5,0.7,1.5,1.6v0.2
		C11.9,9.7,11.2,10.4,10.4,10.4z"/>
	<path class="st0" d="M30.5,25.5h-0.3c-0.8,0-1.5-0.7-1.5-1.6v-9.5c0-1.2,0-2.5,0.1-4h-0.1c-0.2,1.1-0.3,1.9-0.5,2.4L25,24.4
		c-0.2,0.7-0.8,1.1-1.5,1.1h-0.5c-0.7,0-1.3-0.5-1.5-1.1l-3.2-11.3c-0.1-0.3-0.3-1.2-0.5-2.6h-0.1c0.1,1.8,0.1,3.4,0.1,4.8l0,8.7
		c0,0.9-0.7,1.6-1.5,1.6l0,0c-0.8,0-1.5-0.7-1.5-1.6l0-15.4c0-0.9,0.7-1.6,1.5-1.6h2.3c0.7,0,1.3,0.5,1.5,1.1l2.7,9.8
		c0.2,0.9,1,0.7,1.2,0l2.7-9.8C27.1,7.5,27.6,7,28.3,7h2.1C31.3,7,32,7.7,32,8.6L32,24C32,24.8,31.3,25.5,30.5,25.5z"/>
</g>
</svg>
