<?xml version="1.0" encoding="utf-8"?>
<!-- Generator: Adobe Illustrator 24.1.0, SVG Export Plug-In . SVG Version: 6.00 Build 0)  -->
<svg version="1.1" id="Слой_1" xmlns="http://www.w3.org/2000/svg" xmlns:xlink="http://www.w3.org/1999/xlink" x="0px" y="0px"
	 viewBox="0 0 100 100" style="enable-background:new 0 0 100 100;" xml:space="preserve">
<style type="text/css">
	.st0{fill:#FFFFFF;}
</style>
<g>
	<path class="st0" d="M38.5,21C48.15,21,56,28.85,56,38.5S48.15,56,38.5,56S21,48.15,21,38.5S28.85,21,38.5,21 M38.5,11
		C23.31,11,11,23.31,11,38.5S23.31,66,38.5,66S66,53.69,66,38.5S53.69,11,38.5,11L38.5,11z"/>
</g>
<g>
	<path class="st0" d="M56.54,58.54l26.56,26.56L56.54,58.54C56.53,58.54,56.53,58.54,56.54,58.54 M56.54,53.54
		c-1.28,0-2.56,0.49-3.54,1.46l0,0c-1.95,1.95-1.95,5.12,0,7.07l26.56,26.56c0.98,0.98,2.26,1.46,3.54,1.46s2.56-0.49,3.54-1.46l0,0
		c1.95-1.95,1.95-5.12,0-7.07L60.07,55C59.09,54.02,57.82,53.54,56.54,53.54L56.54,53.54z"/>
</g>
</svg>
