<?xml version="1.0" encoding="utf-8"?>
<!-- Generator: Adobe Illustrator 24.1.0, SVG Export Plug-In . SVG Version: 6.00 Build 0)  -->
<svg version="1.1" id="Слой_1" xmlns="http://www.w3.org/2000/svg" xmlns:xlink="http://www.w3.org/1999/xlink" x="0px" y="0px"
	 viewBox="0 0 100 100" style="enable-background:new 0 0 100 100;" xml:space="preserve">
<style type="text/css">
	.st0{fill:#FFFFFF;}
</style>
<path class="st0" d="M80.13,40.12c-0.36-1.01-0.77-2.01-1.24-2.99c-0.5-1.05-0.41-2.28,0.22-3.26l2.61-4.04
	c0.86-1.34,0.68-3.1-0.45-4.23c-1.93-1.93-4.2-4.21-6.04-6.04c-1.13-1.13-2.88-1.31-4.22-0.45l-4.02,2.6
	c-0.98,0.63-2.21,0.72-3.26,0.22c-0.99-0.47-1.99-0.88-3.02-1.24c-1.1-0.39-1.91-1.32-2.16-2.46l-1.01-4.68
	c-0.34-1.56-1.71-2.67-3.3-2.67c-2.59,0-5.99-0.03-8.54-0.04c-1.6,0-2.97,1.11-3.31,2.67l-1.01,4.7c-0.24,1.14-1.06,2.07-2.15,2.46
	c-1.02,0.36-2.02,0.78-3,1.24c-1.05,0.5-2.28,0.41-3.26-0.22l-4.1-2.65c-1.34-0.86-3.1-0.68-4.22,0.44
	c-1.82,1.82-4.17,4.35-5.95,6.16c-1.11,1.13-1.29,2.87-0.43,4.21l2.56,3.97c0.63,0.97,0.72,2.21,0.22,3.25
	c-0.47,0.99-0.88,2-1.24,3.02c-0.39,1.1-1.32,1.92-2.46,2.16l-4.7,1.01c-1.56,0.34-2.67,1.71-2.67,3.3c0,2.56,0,6,0,8.54
	c0,1.59,1.11,2.97,2.67,3.31l4.72,1.02c1.15,0.25,2.08,1.07,2.47,2.18c0.36,1.01,0.76,1.99,1.2,2.93c0.49,1.06,0.42,2.29-0.21,3.28
	l-2.6,4.03c-0.86,1.34-0.68,3.1,0.45,4.23l6.04,6.04c1.13,1.13,2.89,1.31,4.23,0.45l4.02-2.59c0.98-0.63,2.21-0.72,3.26-0.22
	c0.99,0.47,1.99,0.88,3.02,1.25c1.1,0.39,1.91,1.32,2.15,2.46l1.02,4.72c0.34,1.56,1.71,2.67,3.3,2.67c2.56,0,6,0,8.54,0
	c1.59,0,2.97-1.11,3.3-2.67l1.02-4.73c0.24-1.14,1.05-2.07,2.15-2.46c1.02-0.36,2.02-0.77,2.99-1.23c1.05-0.49,2.27-0.4,3.25,0.23
	l3.94,2.54c1.34,0.87,3.1,0.68,4.23-0.45c1.8-1.8,4.32-4.14,6.13-5.92c1.15-1.12,1.34-2.9,0.47-4.25l-2.62-4.06
	c-0.63-0.98-0.72-2.21-0.22-3.26c0.47-0.98,0.88-1.99,1.24-3.01c0.39-1.1,1.32-1.91,2.46-2.15l4.61-0.99
	c1.57-0.34,2.68-1.73,2.67-3.34c-0.01-2.63,0.14-5.93,0.17-8.49c0.02-1.6-1.1-2.99-2.67-3.33l-4.76-1.03
	C81.45,42.02,80.52,41.21,80.13,40.12z"/>
</svg>
