<svg xmlns="http://www.w3.org/2000/svg" style="display: none;">

    <symbol id="sprite_set_icon" viewBox="0 0 100 100">
     <path d="M80.13,40.12c-0.36-1.01-0.77-2.01-1.24-2.99c-0.5-1.05-0.41-2.28,0.22-3.26l2.61-4.04
    c0.86-1.34,0.68-3.1-0.45-4.23c-1.93-1.93-4.2-4.21-6.04-6.04c-1.13-1.13-2.88-1.31-4.22-0.45l-4.02,2.6
    c-0.98,0.63-2.21,0.72-3.26,0.22c-0.99-0.47-1.99-0.88-3.02-1.24c-1.1-0.39-1.91-1.32-2.16-2.46l-1.01-4.68
    c-0.34-1.56-1.71-2.67-3.3-2.67c-2.59,0-5.99-0.03-8.54-0.04c-1.6,0-2.97,1.11-3.31,2.67l-1.01,4.7c-0.24,1.14-1.06,2.07-2.15,2.46
    c-1.02,0.36-2.02,0.78-3,1.24c-1.05,0.5-2.28,0.41-3.26-0.22l-4.1-2.65c-1.34-0.86-3.1-0.68-4.22,0.44
    c-1.82,1.82-4.17,4.35-5.95,6.16c-1.11,1.13-1.29,2.87-0.43,4.21l2.56,3.97c0.63,0.97,0.72,2.21,0.22,3.25
    c-0.47,0.99-0.88,2-1.24,3.02c-0.39,1.1-1.32,1.92-2.46,2.16l-4.7,1.01c-1.56,0.34-2.67,1.71-2.67,3.3c0,2.56,0,6,0,8.54
    c0,1.59,1.11,2.97,2.67,3.31l4.72,1.02c1.15,0.25,2.08,1.07,2.47,2.18c0.36,1.01,0.76,1.99,1.2,2.93c0.49,1.06,0.42,2.29-0.21,3.28
    l-2.6,4.03c-0.86,1.34-0.68,3.1,0.45,4.23l6.04,6.04c1.13,1.13,2.89,1.31,4.23,0.45l4.02-2.59c0.98-0.63,2.21-0.72,3.26-0.22
    c0.99,0.47,1.99,0.88,3.02,1.25c1.1,0.39,1.91,1.32,2.15,2.46l1.02,4.72c0.34,1.56,1.71,2.67,3.3,2.67c2.56,0,6,0,8.54,0
    c1.59,0,2.97-1.11,3.3-2.67l1.02-4.73c0.24-1.14,1.05-2.07,2.15-2.46c1.02-0.36,2.02-0.77,2.99-1.23c1.05-0.49,2.27-0.4,3.25,0.23
    l3.94,2.54c1.34,0.87,3.1,0.68,4.23-0.45c1.8-1.8,4.32-4.14,6.13-5.92c1.15-1.12,1.34-2.9,0.47-4.25l-2.62-4.06
    c-0.63-0.98-0.72-2.21-0.22-3.26c0.47-0.98,0.88-1.99,1.24-3.01c0.39-1.1,1.32-1.91,2.46-2.15l4.61-0.99
    c1.57-0.34,2.68-1.73,2.67-3.34c-0.01-2.63,0.14-5.93,0.17-8.49c0.02-1.6-1.1-2.99-2.67-3.33l-4.76-1.03
    C81.45,42.02,80.52,41.21,80.13,40.12z"/>
    </symbol>

    <symbol id="sprite_change_avatar"  viewBox="0 0 100 100">
            <path d="M38.5,21C48.15,21,56,28.85,56,38.5S48.15,56,38.5,56S21,48.15,21,38.5S28.85,21,38.5,21 M38.5,11
                C23.31,11,11,23.31,11,38.5S23.31,66,38.5,66S66,53.69,66,38.5S53.69,11,38.5,11L38.5,11z"/>
            <path d="M56.54,58.54l26.56,26.56L56.54,58.54C56.53,58.54,56.53,58.54,56.54,58.54 M56.54,53.54
                c-1.28,0-2.56,0.49-3.54,1.46l0,0c-1.95,1.95-1.95,5.12,0,7.07l26.56,26.56c0.98,0.98,2.26,1.46,3.54,1.46s2.56-0.49,3.54-1.46l0,0
                c1.95-1.95,1.95-5.12,0-7.07L60.07,55C59.09,54.02,57.82,53.54,56.54,53.54L56.54,53.54z"/>
    </symbol>

    <symbol id="sprite_btn_erase" viewBox="0 0 500 500">
        <path d="M442.1,97.9c9.9,0,17.9,8,17.9,17.9v268.4c0,9.9-8,17.9-17.9,17.9H182.3c-5,0-9.7-2.1-13.1-5.7L44.8,262.2
		c-6.3-6.8-6.3-17.5,0-24.3l124.4-134.2c3.4-3.6,8.2-5.7,13.1-5.7H442.1 M442.1,57.9H182.3c-16.1,0-31.5,6.7-42.5,18.5L15.4,210.6
		c-20.6,22.2-20.6,56.5,0,78.7l124.4,134.2c11,11.8,26.3,18.5,42.5,18.5h259.8c32,0,57.9-25.9,57.9-57.9V115.8
		C500,83.8,474.1,57.9,442.1,57.9L442.1,57.9z"/>
        <path style="stroke-width:6;stroke-linejoin:round;stroke-miterlimit:10"
              d="M387.8,316.5L333,261.6c-6.7-6.7-6.7-17.7,0-24.4l54.2-54.2c6.7-6.7,6.7-17.7,0-24.4l0,0
        c-6.7-6.7-17.7-6.7-24.4,0l-54.2,54.2c-6.7,6.7-17.7,6.7-24.4,0l-54.8-54.8c-6.7-6.7-17.7-6.7-24.4,0l0,0c-6.7,6.7-6.7,17.7,0,24.4
        l54.8,54.8c6.7,6.7,6.7,17.7,0,24.4l-55.5,55.5c-6.7,6.7-6.7,17.7,0,24.4l0,0c6.7,6.7,17.7,6.7,24.4,0l55.5-55.5
        c6.7-6.7,17.7-6.7,24.4,0l54.8,54.8c6.7,6.7,17.7,6.7,24.4,0l0,0C394.6,334.2,394.6,323.2,387.8,316.5z"/>
    </symbol>

    <symbol id="sprite_btn_show" viewBox="0 0 500 500">
        <path d="M250,391c-61.6,0-122.4-18-171.2-50.8C36.4,311.8,10,275.8,10,246.5s26.4-65.3,68.8-93.8c48.8-32.7,109.6-50.8,171.2-50.8
            c61.4,0,122.2,18.2,171.2,51.2c42.4,28.6,68.8,64.4,68.8,93.3s-26.4,64.7-68.8,93.3C372.2,372.8,311.4,391,250,391z M250,122.5
            c-70.3,0-127.5,55.6-127.5,124c0,68.4,57.2,124,127.5,124c70.3,0,127.5-55.6,127.5-124C377.5,178.1,320.3,122.5,250,122.5z"/>
        <path d="M250,111.9c30.9,0,61.6,4.7,91.3,14.1c26.7,8.4,52.4,20.7,74.3,35.4c39.1,26.4,64.4,59.8,64.4,85.1s-25.3,58.6-64.4,85.1
            c-21.9,14.8-47.6,27-74.3,35.4c-29.7,9.4-60.4,14.1-91.3,14.1c-30.9,0-61.7-4.7-91.4-13.9c-26.8-8.3-52.5-20.5-74.3-35.1
            c-20.3-13.6-37.1-29.2-48.5-45.1C25.5,272.4,20,258.4,20,246.5c0-12,5.5-26,15.9-40.4c11.4-15.9,28.2-31.5,48.5-45.1
            c21.8-14.6,47.5-26.8,74.3-35.1C188.3,116.6,219.1,111.9,250,111.9 M250,380.4c75.8,0,137.5-60.1,137.5-134
            c0-73.9-61.7-134-137.5-134s-137.5,60.1-137.5,134C112.5,320.3,174.2,380.4,250,380.4 M250,91.9C111.9,91.9,0,180.3,0,246.5
            S111.9,401,250,401s250-89.7,250-154.6S388.1,91.9,250,91.9L250,91.9z M250,360.4c-64.9,0-117.5-51-117.5-114
            c0-63,52.6-114,117.5-114s117.5,51,117.5,114C367.5,309.4,314.9,360.4,250,360.4L250,360.4z"/>
    </symbol>

</svg>